<?xml version="1.0" standalone="no"?>
<!DOCTYPE svg PUBLIC "-//W3C//DTD SVG 20010904//EN"
 "http://www.w3.org/TR/2001/REC-SVG-20010904/DTD/svg10.dtd">
<svg version="1.0" xmlns="http://www.w3.org/2000/svg"
 width="512.000000pt" height="512.000000pt" viewBox="0 0 512.000000 512.000000"
 preserveAspectRatio="xMidYMid meet">

<g transform="translate(0.000000,512.000000) scale(0.100000,-0.100000)"
fill="#000000" stroke="none">
<path d="M2500 3769 c-179 -9 -289 -43 -437 -137 -166 -104 -243 -207 -293
-387 -69 -251 -74 -299 -40 -365 11 -22 20 -41 20 -43 0 -2 -44 -31 -97 -65
-54 -34 -118 -82 -143 -107 -40 -41 -48 -45 -92 -45 -39 0 -54 -6 -83 -31 -55
-48 -69 -83 -69 -169 -1 -63 3 -81 22 -107 12 -18 31 -34 41 -38 10 -3 31 -26
47 -51 47 -74 86 -89 229 -88 135 1 122 -3 428 113 187 71 263 105 302 135 33
25 9 18 -57 -18 -35 -19 -126 -57 -203 -86 -77 -28 -174 -64 -215 -80 -111
-43 -149 -51 -262 -52 -79 -1 -111 3 -135 15 -36 19 -83 66 -83 83 0 6 24 14
54 17 30 3 66 13 81 23 37 24 85 111 85 154 0 48 -41 132 -80 162 l-32 25 52
46 c28 25 115 84 193 130 168 100 202 118 242 128 l30 7 -30 1 c-18 0 -64 -18
-114 -44 -45 -25 -87 -45 -92 -45 -16 0 -39 72 -39 124 0 97 83 379 132 449
93 134 240 240 408 296 l105 34 210 1 c246 1 293 -8 420 -81 194 -113 239
-157 330 -321 43 -77 49 -95 52 -162 3 -41 1 -108 -4 -147 -5 -40 -6 -73 -1
-73 14 0 21 50 21 168 1 113 0 119 -32 182 -50 98 -115 194 -156 231 -38 36
-176 123 -260 164 -94 47 -245 65 -455 54z m-1179 -1316 c-12 -20 -14 -14 -5
12 4 9 9 14 11 11 3 -2 0 -13 -6 -23z"/>
<path d="M2020 3291 c0 -5 -7 -17 -16 -25 -21 -22 -10 -51 27 -66 42 -18 71 9
67 59 -3 34 -5 36 -40 39 -21 2 -38 -1 -38 -7z"/>
<path d="M1329 3223 c0 -21 -1 -58 -2 -83 -2 -25 3 -61 9 -80 11 -35 11 -37
-28 -69 -21 -18 -37 -36 -34 -38 3 -3 21 8 41 26 40 35 85 42 85 13 0 -10 -16
-34 -36 -53 -34 -33 -36 -33 -50 -15 -14 19 -14 19 -14 -2 0 -37 42 -28 84 18
45 50 47 78 7 86 -19 4 -31 14 -35 28 -8 30 -7 46 3 46 15 0 83 31 79 36 -3 2
-23 -2 -45 -10 -39 -14 -41 -14 -47 7 -6 25 10 47 35 47 11 0 19 4 19 10 0 5
-13 7 -29 4 -28 -6 -29 -5 -24 30 3 22 0 36 -6 36 -6 0 -11 -17 -12 -37z"/>
<path d="M1186 3209 c-10 -51 -7 -257 4 -264 6 -4 10 47 10 144 0 83 -2 151
-4 151 -2 0 -6 -14 -10 -31z"/>
<path d="M1060 3174 c0 -15 37 -61 43 -54 3 3 -6 19 -19 35 -13 17 -24 25 -24
19z"/>
<path d="M1251 3138 c-15 -41 12 -100 39 -83 11 7 14 64 4 89 -9 23 -33 20
-43 -6z m26 -50 c-2 -13 -4 -5 -4 17 -1 22 1 32 4 23 2 -10 2 -28 0 -40z"/>
<path d="M2472 3134 c-17 -12 -22 -24 -20 -47 3 -29 6 -32 37 -32 26 0 39 7
55 28 l21 29 -24 19 c-28 23 -40 24 -69 3z"/>
<path d="M1080 3095 c-25 -13 -40 -24 -33 -25 18 0 83 32 83 42 0 10 3 11 -50
-17z"/>
<path d="M3334 2942 c122 -196 144 -252 201 -502 69 -299 31 -483 -119 -578
-79 -50 -222 -29 -322 47 -84 64 -135 202 -155 416 -19 200 -64 351 -128 425
-21 25 -42 42 -45 39 -4 -3 8 -21 25 -40 65 -69 108 -209 129 -419 21 -209 75
-358 152 -425 76 -65 216 -100 304 -76 50 13 125 78 160 136 34 59 58 191 50
281 -8 102 -70 364 -111 469 -30 77 -58 128 -172 309 -10 16 -24 31 -31 34 -6
2 21 -50 62 -116z"/>
<path d="M1110 3033 c-24 -8 -40 -35 -40 -65 0 -37 21 -36 55 3 35 43 27 77
-15 62z m6 -48 c-9 -14 -21 -25 -27 -25 -5 0 0 13 12 30 27 35 39 32 15 -5z"/>
<path d="M1835 2405 c-37 -96 -55 -123 -100 -153 -26 -17 -62 -36 -81 -42 -19
-7 -34 -15 -34 -20 0 -15 110 33 148 66 41 34 86 123 79 152 -3 15 -5 14 -12
-3z"/>
<path d="M2805 2291 c-3 -6 -26 -24 -51 -41 -136 -91 -293 -134 -472 -128 -96
3 -114 6 -174 35 -38 18 -68 37 -68 42 0 6 -5 11 -10 11 -28 0 15 -40 72 -66
57 -26 75 -29 184 -32 157 -5 283 21 395 79 76 40 165 108 142 109 -6 0 -14
-4 -18 -9z"/>
<path d="M3662 2174 c23 -26 74 -141 92 -211 65 -240 85 -506 68 -875 -7 -139
-19 -316 -26 -393 -24 -235 -29 -305 -19 -305 5 0 14 62 21 138 7 75 16 182
21 237 59 622 18 1121 -112 1359 -17 33 -39 62 -47 64 -12 4 -12 1 2 -14z"/>
<path d="M1642 2095 c-72 -51 -164 -325 -194 -580 -26 -229 -14 -616 29 -840
33 -180 90 -355 114 -355 13 0 11 6 -10 48 -41 80 -83 250 -107 432 -22 164
-30 523 -15 662 31 288 127 581 206 629 16 11 23 19 15 19 -9 0 -25 -7 -38
-15z"/>
</g>
</svg>
